<svg id="Layer_1" data-name="Layer 1" xmlns="http://www.w3.org/2000/svg" viewBox="0 0 506.79 95.21"><defs><style>.cls-1{fill:#f58220;}</style></defs><path class="cls-1" d="M39.89,28.65c5.37,0,9.72-4.92,9.72-11s-4.35-11-9.72-11-9.71,4.92-9.71,11,4.34,11,9.71,11" transform="translate(-7.35 -6.38)"/><path class="cls-1" d="M94.05,28.65c5.37,0,9.72-4.92,9.72-11s-4.35-11-9.72-11-9.72,4.92-9.72,11,4.36,11,9.72,11" transform="translate(-7.35 -6.38)"/><path class="cls-1" d="M114.74,70.28C107.9,82.21,96.37,90.34,81.79,87.19c8.9-8.45,15.23-20.86,15.87-39.1C89.78,42.47,78.51,38.84,67,38.83s-22.81,3.64-30.69,9.26c.64,18.24,7,30.64,15.86,39.09-14.38,3.1-25.79-4.76-32.67-16.43L7.35,79.44C20.11,101.84,46.07,106.33,67,97,88,106.4,114.21,101.78,126.87,79ZM67,80.19A37.56,37.56,0,0,1,53.53,55.07c2.64-1.58,8-2.87,13.45-2.87s10.79,1.29,13.44,2.87A37.6,37.6,0,0,1,67,80.19" transform="translate(-7.35 -6.38)"/><path class="cls-1" d="M39.89,28.65c5.37,0,9.72-4.92,9.72-11s-4.35-11-9.72-11-9.71,4.92-9.71,11,4.34,11,9.71,11" transform="translate(-7.35 -6.38)"/><path class="cls-1" d="M94.05,28.65c5.37,0,9.72-4.92,9.72-11s-4.35-11-9.72-11-9.72,4.92-9.72,11,4.36,11,9.72,11" transform="translate(-7.35 -6.38)"/><path class="cls-1" d="M114.74,70.28C107.9,82.21,96.37,90.34,81.79,87.19c8.9-8.45,15.23-20.86,15.87-39.1C89.78,42.47,78.51,38.84,67,38.83s-22.81,3.64-30.69,9.26c.64,18.24,7,30.64,15.86,39.09-14.38,3.1-25.79-4.76-32.67-16.43L7.35,79.44C20.11,101.84,46.07,106.33,67,97,88,106.4,114.21,101.78,126.87,79ZM67,80.19A37.56,37.56,0,0,1,53.53,55.07c2.64-1.58,8-2.87,13.45-2.87s10.79,1.29,13.44,2.87A37.6,37.6,0,0,1,67,80.19" transform="translate(-7.35 -6.38)"/><path class="cls-1" d="M129.87,74.93a2.31,2.31,0,0,1-.17.89A2,2,0,0,1,128.54,77a2.2,2.2,0,0,1-.81.15,2.25,2.25,0,0,1-.87-.16,2.33,2.33,0,0,1-.68-.46,2.26,2.26,0,0,1-.44-.69,2.43,2.43,0,0,1,0-1.76,1.92,1.92,0,0,1,.47-.69,2.29,2.29,0,0,1,.69-.45,2.26,2.26,0,0,1,.82-.16,2.21,2.21,0,0,1,.81.16,2.29,2.29,0,0,1,.69.45,2.05,2.05,0,0,1,.47.69,2.28,2.28,0,0,1,.17.89m-.47,0a1.9,1.9,0,0,0-.13-.73,1.46,1.46,0,0,0-.36-.57,1.35,1.35,0,0,0-.52-.37,1.66,1.66,0,0,0-.66-.14,1.59,1.59,0,0,0-.66.14,1.34,1.34,0,0,0-.54.37,1.57,1.57,0,0,0-.35.57,1.9,1.9,0,0,0-.13.73,2.28,2.28,0,0,0,.11.7,1.63,1.63,0,0,0,.34.57,1.64,1.64,0,0,0,1.23.54,1.85,1.85,0,0,0,.66-.13,1.62,1.62,0,0,0,.52-.38,1.54,1.54,0,0,0,.36-.57,1.9,1.9,0,0,0,.13-.73m-2.1,1.25h-.4V73.76h.92a1.11,1.11,0,0,1,.66.17.58.58,0,0,1,.22.52.58.58,0,0,1-.18.48.76.76,0,0,1-.45.18l.68,1.07h-.46l-.62-1h-.37Zm.44-1.37H128l.17,0a.49.49,0,0,0,.13-.12.35.35,0,0,0,0-.2.24.24,0,0,0-.05-.18.29.29,0,0,0-.12-.1.47.47,0,0,0-.17,0h-.66v.71Z" transform="translate(-7.35 -6.38)"/><path class="cls-1" d="M170.22,8.74a28.77,28.77,0,0,1,6.11.6,13.29,13.29,0,0,1,4.73,1.93,9,9,0,0,1,3.05,3.58,12.59,12.59,0,0,1,1.08,5.51,10.19,10.19,0,0,1-1.61,5.91,11.58,11.58,0,0,1-4.76,3.87,11.3,11.3,0,0,1,6.47,4.37A13,13,0,0,1,187.42,42,12.84,12.84,0,0,1,186,48.16a11.94,11.94,0,0,1-3.7,4.24A16.46,16.46,0,0,1,177,54.82a23.77,23.77,0,0,1-6.14.79H148.17V8.74Zm-1.31,19a7.37,7.37,0,0,0,4.53-1.31,5,5,0,0,0,1.77-4.26,5.43,5.43,0,0,0-.59-2.7,4.42,4.42,0,0,0-1.57-1.64,6.88,6.88,0,0,0-2.27-.82,15.31,15.31,0,0,0-2.66-.23h-9.65v11Zm.59,19.89a13.56,13.56,0,0,0,2.89-.29,7.13,7.13,0,0,0,2.43-1,4.92,4.92,0,0,0,1.67-1.88,6.34,6.34,0,0,0,.63-3q0-3.61-2-5.16a8.66,8.66,0,0,0-5.38-1.54H158.47V47.6Z" transform="translate(-7.35 -6.38)"/><path class="cls-1" d="M201.08,47.47A9.54,9.54,0,0,0,212,48.1a5.87,5.87,0,0,0,2.5-3h8.2q-2,6.11-6,8.73a17.75,17.75,0,0,1-9.84,2.63,19.43,19.43,0,0,1-7.22-1.28,15,15,0,0,1-5.45-3.65,16.29,16.29,0,0,1-3.45-5.64,20.68,20.68,0,0,1-1.21-7.22,19.61,19.61,0,0,1,1.25-7.09,16.35,16.35,0,0,1,9-9.45,17.58,17.58,0,0,1,7.06-1.38,16.1,16.1,0,0,1,7.55,1.67,15.17,15.17,0,0,1,5.28,4.5,18.62,18.62,0,0,1,3,6.43,23.9,23.9,0,0,1,.65,7.55H198.78Q199,45.44,201.08,47.47Zm10.53-17.85a6.51,6.51,0,0,0-5.08-1.84,8,8,0,0,0-3.71.76,6.91,6.91,0,0,0-2.37,1.87,6.8,6.8,0,0,0-1.24,2.36,10.45,10.45,0,0,0-.43,2.23h15.16A10.65,10.65,0,0,0,211.61,29.62Z" transform="translate(-7.35 -6.38)"/><path class="cls-1" d="M234.33,47.18a5.45,5.45,0,0,0,1.6,1.77,6.91,6.91,0,0,0,2.27,1,10.59,10.59,0,0,0,2.66.33,10.15,10.15,0,0,0,2.06-.23,7.11,7.11,0,0,0,2-.73A4.33,4.33,0,0,0,246.37,48,3.4,3.4,0,0,0,247,46q0-2.1-2.79-3.15a55.59,55.59,0,0,0-7.78-2.1c-1.35-.3-2.68-.66-4-1.08A13.52,13.52,0,0,1,229,38a7.92,7.92,0,0,1-2.43-2.56,7.2,7.2,0,0,1-.92-3.78,10.16,10.16,0,0,1,1.28-5.38A9.4,9.4,0,0,1,230.29,23,14.82,14.82,0,0,1,235,21.25a29.05,29.05,0,0,1,5.39-.49,26.89,26.89,0,0,1,5.35.52,14.21,14.21,0,0,1,4.63,1.77,10.81,10.81,0,0,1,3.38,3.32,11.17,11.17,0,0,1,1.6,5.22H246.5a4.06,4.06,0,0,0-2-3.64,9.26,9.26,0,0,0-4.34-1c-.52,0-1.09,0-1.7.1a5.84,5.84,0,0,0-1.68.43,3.43,3.43,0,0,0-1.28.95,2.51,2.51,0,0,0-.52,1.67,2.54,2.54,0,0,0,.92,2,7.19,7.19,0,0,0,2.39,1.28,29.34,29.34,0,0,0,3.38.88c1.27.27,2.56.55,3.88.86s2.68.68,4,1.11a13.3,13.3,0,0,1,3.45,1.74,8.53,8.53,0,0,1,2.42,2.69,7.87,7.87,0,0,1,.92,4A10.28,10.28,0,0,1,251.43,54a14.41,14.41,0,0,1-5,1.94,29,29,0,0,1-5.68.56,28.48,28.48,0,0,1-5.78-.59,15.63,15.63,0,0,1-5-2,10.82,10.82,0,0,1-5.15-9.32h8.86A5.07,5.07,0,0,0,234.33,47.18Z" transform="translate(-7.35 -6.38)"/><path class="cls-1" d="M278.08,21.68v6.23h-6.83V44.72c0,1.57.26,2.62.79,3.15s1.57.79,3.15.79c.52,0,1,0,1.51-.07a11.74,11.74,0,0,0,1.38-.2v7.22a21.77,21.77,0,0,1-2.63.27q-1.44.06-2.82.06a28.2,28.2,0,0,1-4.11-.29,9.74,9.74,0,0,1-3.41-1.15,6.13,6.13,0,0,1-2.33-2.43,8.67,8.67,0,0,1-.85-4.14v-20h-5.65V21.68h5.65V11.5h9.32V21.68Z" transform="translate(-7.35 -6.38)"/><path class="cls-1" d="M330.13,8.74v8.67H307.48V28.24h19.63v8H307.48V55.61h-10.3V8.74Z" transform="translate(-7.35 -6.38)"/><path class="cls-1" d="M341.68,21.68V28h.14a11,11,0,0,1,1.77-2.92,11.2,11.2,0,0,1,2.56-2.3,12.67,12.67,0,0,1,3.08-1.48,11.16,11.16,0,0,1,3.42-.52,7.19,7.19,0,0,1,2,.33v8.66a15.37,15.37,0,0,0-1.57-.23,15.8,15.8,0,0,0-1.78-.1,9.92,9.92,0,0,0-4.33.86,7.42,7.42,0,0,0-2.85,2.32,9.36,9.36,0,0,0-1.55,3.45,19.21,19.21,0,0,0-.46,4.27V55.61h-9.32V21.68Z" transform="translate(-7.35 -6.38)"/><path class="cls-1" d="M365.64,21.68V55.61h-9.32V21.68Zm.19-10.44A4.86,4.86,0,1,1,361,6.38,4.85,4.85,0,0,1,365.83,11.24Z" transform="translate(-7.35 -6.38)"/><path class="cls-1" d="M380.67,47.47a9.56,9.56,0,0,0,10.9.63,5.87,5.87,0,0,0,2.5-3h8.2q-2,6.11-6,8.73a17.75,17.75,0,0,1-9.84,2.63,19.43,19.43,0,0,1-7.22-1.28,15,15,0,0,1-5.45-3.65,16.29,16.29,0,0,1-3.45-5.64,20.68,20.68,0,0,1-1.21-7.22,19.83,19.83,0,0,1,1.24-7.09,16.41,16.41,0,0,1,9-9.45,17.54,17.54,0,0,1,7.06-1.38,16.06,16.06,0,0,1,7.54,1.67,15.12,15.12,0,0,1,5.29,4.5,18.62,18.62,0,0,1,3,6.43,23.9,23.9,0,0,1,.65,7.55H378.38Q378.58,45.44,380.67,47.47Zm10.54-17.85a6.52,6.52,0,0,0-5.09-1.84,8.06,8.06,0,0,0-3.71.76,7,7,0,0,0-2.36,1.87,6.83,6.83,0,0,0-1.25,2.36,10.38,10.38,0,0,0-.42,2.23h15.16A10.74,10.74,0,0,0,391.21,29.62Z" transform="translate(-7.35 -6.38)"/><path class="cls-1" d="M414.94,21.68V26.4h.2a10.7,10.7,0,0,1,4.59-4.3,13.39,13.39,0,0,1,5.78-1.34,16,16,0,0,1,6.14,1,9.11,9.11,0,0,1,3.77,2.83A10.88,10.88,0,0,1,437.36,29a27.55,27.55,0,0,1,.56,5.75V55.61h-9.33V36.45c0-2.81-.43-4.89-1.31-6.27s-2.43-2.07-4.66-2.07q-3.81,0-5.51,2.26c-1.14,1.51-1.71,4-1.71,7.45V55.61h-9.32V21.68Z" transform="translate(-7.35 -6.38)"/><path class="cls-1" d="M466.8,51.28a9.65,9.65,0,0,1-4.3,4,14.34,14.34,0,0,1-6,1.22A14.53,14.53,0,0,1,449.8,55,13.33,13.33,0,0,1,445,51a18.28,18.28,0,0,1-2.83-5.81,24.6,24.6,0,0,1-.95-6.83,23.1,23.1,0,0,1,.95-6.6A17.23,17.23,0,0,1,445,26.14a13.65,13.65,0,0,1,11.25-5.38A13.27,13.27,0,0,1,462,22a10,10,0,0,1,4.3,3.77h.13V8.74h9.32V55.61h-8.86V51.28Zm-.4-16.77a9.85,9.85,0,0,0-1.34-3.41,7.62,7.62,0,0,0-2.46-2.4,7.26,7.26,0,0,0-3.81-.92,7.59,7.59,0,0,0-3.87.92,7.19,7.19,0,0,0-2.53,2.43A10.58,10.58,0,0,0,451,34.58a18.3,18.3,0,0,0-.43,4,17.66,17.66,0,0,0,.46,3.94,10.74,10.74,0,0,0,1.48,3.51,8.25,8.25,0,0,0,2.56,2.5,7,7,0,0,0,3.71.95,7.43,7.43,0,0,0,3.84-.92,6.9,6.9,0,0,0,2.46-2.46,11.06,11.06,0,0,0,1.31-3.51,20.21,20.21,0,0,0,.4-4.07A19.7,19.7,0,0,0,466.4,34.51Z" transform="translate(-7.35 -6.38)"/><path class="cls-1" d="M488.36,47.18A5.48,5.48,0,0,0,490,49a7,7,0,0,0,2.26,1,10.65,10.65,0,0,0,2.66.33,10.17,10.17,0,0,0,2.07-.23,7.23,7.23,0,0,0,2-.73A4.42,4.42,0,0,0,500.41,48,3.47,3.47,0,0,0,501,46q0-2.1-2.79-3.15a55.59,55.59,0,0,0-7.78-2.1c-1.36-.3-2.68-.66-4-1.08A13.76,13.76,0,0,1,483,38a8,8,0,0,1-2.43-2.56,7.3,7.3,0,0,1-.92-3.78,10.25,10.25,0,0,1,1.28-5.38A9.43,9.43,0,0,1,484.33,23a14.82,14.82,0,0,1,4.72-1.71,29,29,0,0,1,5.38-.49,26.89,26.89,0,0,1,5.35.52,14.21,14.21,0,0,1,4.63,1.77,10.6,10.6,0,0,1,3.38,3.32,11.06,11.06,0,0,1,1.61,5.22h-8.86a4.05,4.05,0,0,0-2-3.64,9.22,9.22,0,0,0-4.33-1c-.52,0-1.09,0-1.7.1a5.75,5.75,0,0,0-1.68.43,3.43,3.43,0,0,0-1.28.95,2.51,2.51,0,0,0-.52,1.67,2.56,2.56,0,0,0,.91,2,7.35,7.35,0,0,0,2.4,1.28,29.34,29.34,0,0,0,3.38.88c1.27.27,2.56.55,3.87.86s2.68.68,4,1.11A13,13,0,0,1,507,38.05a8.45,8.45,0,0,1,2.43,2.69,8,8,0,0,1,.92,4A10.79,10.79,0,0,1,509,50.33,10.64,10.64,0,0,1,505.46,54a14.28,14.28,0,0,1-4.95,1.94,29.17,29.17,0,0,1-5.68.56,28.41,28.41,0,0,1-5.78-.59,15.54,15.54,0,0,1-5-2,10.82,10.82,0,0,1-5.15-9.32h8.86A5.17,5.17,0,0,0,488.36,47.18Z" transform="translate(-7.35 -6.38)"/><path class="cls-1" d="M514.14,19a3.42,3.42,0,0,1-.25,1.3,3.17,3.17,0,0,1-.68,1,3,3,0,0,1-1,.65,3.13,3.13,0,0,1-1.18.22,3.25,3.25,0,0,1-1.26-.24,3,3,0,0,1-1-.66,3.23,3.23,0,0,1-.64-1,3.48,3.48,0,0,1-.23-1.26,3.19,3.19,0,0,1,.25-1.29A3.09,3.09,0,0,1,511,15.84a3,3,0,0,1,1.18.23,2.86,2.86,0,0,1,1,.64,3.22,3.22,0,0,1,.68,1A3.37,3.37,0,0,1,514.14,19Zm-.68,0a2.81,2.81,0,0,0-.19-1.06,2.41,2.41,0,0,0-.51-.83,2.26,2.26,0,0,0-.77-.53,2.34,2.34,0,0,0-.95-.19,2.38,2.38,0,0,0-1,.19,2.17,2.17,0,0,0-.77.53,2.44,2.44,0,0,0-.52.83,3.07,3.07,0,0,0,0,2.07,2.53,2.53,0,0,0,.49.83,2.27,2.27,0,0,0,1.78.77,2.34,2.34,0,0,0,.95-.19,2.26,2.26,0,0,0,.77-.53,2.41,2.41,0,0,0,.51-.83A2.78,2.78,0,0,0,513.46,19Zm-3,1.81h-.58v-3.5h1.33a1.56,1.56,0,0,1,.95.24,1,1,0,0,1,.06,1.46,1.23,1.23,0,0,1-.65.26l1,1.54h-.65l-.9-1.5h-.54Zm.64-2h.31a.61.61,0,0,0,.25-.07.42.42,0,0,0,.18-.17.51.51,0,0,0,.07-.3.39.39,0,0,0-.07-.25.65.65,0,0,0-.18-.15,1,1,0,0,0-.25-.06h-.95v1Z" transform="translate(-7.35 -6.38)"/><path class="cls-1" d="M153,90.23c0,3.84,3,5.34,6.39,5.34,2.22,0,5.62-.65,5.62-3.6,0-3.12-4.33-3.64-8.58-4.77s-8.61-2.8-8.61-8.22c0-5.9,5.58-8.73,10.8-8.73,6,0,11.57,2.63,11.57,9.3H164c-.2-3.48-2.67-4.37-5.7-4.37-2,0-4.37.85-4.37,3.28,0,2.22,1.37,2.51,8.61,4.37,2.11.52,8.58,1.86,8.58,8.41,0,5.3-4.17,9.26-12,9.26-6.4,0-12.38-3.15-12.3-10.27Z" transform="translate(-7.35 -6.38)"/><path class="cls-1" d="M174.06,85.34c.33-5.38,5.14-7,9.84-7,4.16,0,9.18.93,9.18,5.94V95.16a10.67,10.67,0,0,0,.73,4.66H188a8.69,8.69,0,0,1-.4-2,9.56,9.56,0,0,1-7,2.59c-4,0-7.12-2-7.12-6.27,0-4.73,3.56-5.86,7.12-6.35s6.79-.4,6.79-2.75-1.7-2.83-3.72-2.83c-2.18,0-3.6.89-3.8,3.16Zm13.27,4.24c-1,.85-3,.89-4.77,1.22s-3.4,1-3.4,3.07,1.66,2.67,3.52,2.67c4.49,0,4.65-3.56,4.65-4.81Z" transform="translate(-7.35 -6.38)"/><path class="cls-1" d="M208.29,99.82H201.9L194.74,78.9h6l4.41,14.28h.08l4.41-14.28h5.7Z" transform="translate(-7.35 -6.38)"/><path class="cls-1" d="M221.68,90.76c.16,3.64,1.94,5.29,5.14,5.29,2.31,0,4.17-1.41,4.53-2.71h5.06c-1.62,4.94-5.06,7-9.79,7-6.6,0-10.68-4.53-10.68-11,0-6.27,4.33-11,10.68-11,7.12,0,10.55,6,10.15,12.42ZM231,87.12c-.53-2.92-1.78-4.45-4.57-4.45a4.53,4.53,0,0,0-4.78,4.45Z" transform="translate(-7.35 -6.38)"/><path class="cls-1" d="M257.61,76.27H249V70.93h23.66v5.34H264V99.82h-6.35Z" transform="translate(-7.35 -6.38)"/><path class="cls-1" d="M275.33,70.93h5.74V81.82h.12a7.35,7.35,0,0,1,6.11-3.48c6.11,0,7.65,3.44,7.65,8.61V99.82H289.2V88c0-3.44-1-5.14-3.68-5.14-3.11,0-4.45,1.74-4.45,6v11h-5.74Z" transform="translate(-7.35 -6.38)"/><path class="cls-1" d="M303.24,90.76c.17,3.64,1.95,5.29,5.14,5.29,2.31,0,4.17-1.41,4.53-2.71H318c-1.62,4.94-5.06,7-9.79,7-6.59,0-10.68-4.53-10.68-11,0-6.27,4.33-11,10.68-11,7.12,0,10.56,6,10.15,12.42Zm9.35-3.64c-.53-2.92-1.78-4.45-4.57-4.45a4.53,4.53,0,0,0-4.78,4.45Z" transform="translate(-7.35 -6.38)"/><path class="cls-1" d="M321.09,78.9h5.42v2.83h.08A7.54,7.54,0,0,1,333,78.34c2.63,0,5,1,6.11,3.48a7.58,7.58,0,0,1,6.31-3.48c4.45,0,7.64,2.06,7.64,7.48v14H347.3V88c0-2.79-.24-5.09-3.52-5.09s-3.84,2.67-3.84,5.3V99.82h-5.75V88.09c0-2.43.16-5.22-3.48-5.22-1.13,0-3.88.73-3.88,4.81V99.82h-5.74Z" transform="translate(-7.35 -6.38)"/><path class="cls-1" d="M375.7,70.93h6.51L393,99.82h-6.6l-2.18-6.43h-10.8l-2.27,6.43h-6.43Zm-.6,17.72h7.48l-3.64-10.6h-.08Z" transform="translate(-7.35 -6.38)"/><path class="cls-1" d="M394.27,70.93H400V99.82h-5.75Z" transform="translate(-7.35 -6.38)"/><path class="cls-1" d="M404.71,70.93h5.74V99.82h-5.74Z" transform="translate(-7.35 -6.38)"/><path class="cls-1" d="M423.43,75.06a4.3,4.3,0,0,1-.32,1.68,4.2,4.2,0,0,1-.88,1.3,4.09,4.09,0,0,1-1.28.83,3.93,3.93,0,0,1-1.53.29,4.07,4.07,0,0,1-1.62-.31,3.68,3.68,0,0,1-1.27-.87,3.77,3.77,0,0,1-.83-1.29,4.3,4.3,0,0,1-.31-1.63,4.11,4.11,0,0,1,.33-1.67,3.67,3.67,0,0,1,.87-1.29,4,4,0,0,1,1.29-.84,4.25,4.25,0,0,1,1.54-.29,4.12,4.12,0,0,1,1.53.29,4,4,0,0,1,1.28.84,3.84,3.84,0,0,1,.88,1.29,4.29,4.29,0,0,1,.32,1.67m-.88,0a3.74,3.74,0,0,0-.23-1.36,3.31,3.31,0,0,0-.68-1.08,2.85,2.85,0,0,0-1-.69,3,3,0,0,0-1.23-.25,3.05,3.05,0,0,0-1.24.25,2.89,2.89,0,0,0-1,.69,3.13,3.13,0,0,0-.67,1.08,4,4,0,0,0-.24,1.36,3.81,3.81,0,0,0,.22,1.32,3.09,3.09,0,0,0,.63,1.07,2.9,2.9,0,0,0,1,.73,3.1,3.1,0,0,0,1.31.27,3.33,3.33,0,0,0,1.23-.24,2.91,2.91,0,0,0,1-.71,3.22,3.22,0,0,0,.68-1.06,3.81,3.81,0,0,0,.23-1.38m-3.94,2.35h-.74V72.87h1.72a2.06,2.06,0,0,1,1.24.32,1.15,1.15,0,0,1,.41,1,1.1,1.1,0,0,1-.34.9,1.57,1.57,0,0,1-.84.33l1.27,2h-.85l-1.17-1.94h-.7Zm.84-2.58h.4a.75.75,0,0,0,.33-.1.52.52,0,0,0,.23-.21.7.7,0,0,0,.09-.39.48.48,0,0,0-.1-.33.68.68,0,0,0-.23-.18.85.85,0,0,0-.32-.09h-1.24v1.32Z" transform="translate(-7.35 -6.38)"/></svg>